# xmcd
#
# Track frame offsets:
# 183
# 13558
# 29580
# 44853
# 58053
# 70400
# 80043
# 92808
# 104713
# 116943
# 133698
# 144700
# 158643
# 168398
# 179603
# 197348
#
# Disc length: 2851 seconds
#
#
# Revision: 0
# Processed by: cddbd v1.5.1PL0 Copyright (c) Steve Scherf et al.
# Submitted via: FreeRIP 2.942 
#
DISCID=f40b2110
DTITLE=The Gary Tesca Orchestra - Country Nights
DYEAR=1900
DGENRE=Country
TTITLE0=Stand By Your Man
TTITLE1=Always On My Mind
TTITLE2=He'll Have To Go
TTITLE3=Please Help Me I'm Falling
TTITLE4=Blue Bayou
TTITLE5=Hello Mary Lou
TTITLE6=Crying Time
TTITLE7=Jambalaya
TTITLE8=Adios Amigo
TTITLE9=For The Good Times
TTITLE10=Bad Moon Rising
TTITLE11=Rose Garden
TTITLE12=From A Jack To A King
TTITLE13=Oh Lonesome Me
TTITLE14=Midnight Cowboy
TTITLE15=Country Roads
EXTD=
EXTT0=
EXTT1=
EXTT2=
EXTT3=
EXTT4=
EXTT5=
EXTT6=
EXTT7=
EXTT8=
EXTT9=
EXTT10=
EXTT11=
EXTT12=
EXTT13=
EXTT14=
EXTT15=
PLAYORDER=
